# xmcd
#
# Track frame offsets: 
#        182
#        11742
#        23897
#        34887
#        45790
#        58945
#        72750
#        86050
#        99317
#        115107
#        129545
#        146775
#        158497
#        171647
#        183635
#        194195
#
# Disc length: 2771 seconds
#
# Revision: 6
# Processed by: cddbd v1.5.2PL0 Copyright (c) Steve Scherf et al.
# Submitted via: ExactAudioCopyFreeDBPlugin 1.0
#
DISCID=e40ad110
DTITLE=Otis Redding - Love Songs
DYEAR=1998
DGENRE=Soul
TTITLE0=These Arms of Mine
TTITLE1=That's What My Heart Needs
TTITLE2=Pain In My Heart
TTITLE3=That's How Strong My Love Is
TTITLE4=For Your Precious Love
TTITLE5=Nothing Can Change This Love
TTITLE6=I've Been Loving You Too Long (To Stop Now)
TTITLE7=My Girl
TTITLE8=Just One More Day
TTITLE9=My Lover's Prayer
TTITLE10=Try A Little Tenderness
TTITLE11=Lovey Dovey (with Carla Thomas)
TTITLE12=I Love You More Than Words Can Say
TTITLE13=A Lover's Question
TTITLE14=Love Man
TTITLE15=(Your Love Has Lifted Me) Higher and Higher
EXTD=YEAR: 1998
EXTT0=
EXTT1=
EXTT2=
EXTT3=
EXTT4=
EXTT5=
EXTT6=
EXTT7=
EXTT8=
EXTT9=
EXTT10=
EXTT11=
EXTT12=
EXTT13=
EXTT14=
EXTT15=
PLAYORDER=
